<?xml version="1.0" standalone="no"?>
<!DOCTYPE svg PUBLIC "-//W3C//DTD SVG 20010904//EN"
 "http://www.w3.org/TR/2001/REC-SVG-20010904/DTD/svg10.dtd">
<svg version="1.0" xmlns="http://www.w3.org/2000/svg"
 width="1024.000000pt" height="1024.000000pt" viewBox="0 0 1024.000000 1024.000000"
 preserveAspectRatio="xMidYMid meet">

<g transform="translate(0.000000,1024.000000) scale(0.100000,-0.100000)"
fill="#000000" stroke="none">
<path d="M4855 8429 c-487 -16 -964 -103 -1429 -260 -674 -227 -1226 -559
-1672 -1004 -483 -483 -755 -996 -856 -1616 -18 -112 -22 -177 -22 -394 -1
-274 6 -357 50 -568 92 -439 272 -817 572 -1197 108 -137 353 -377 527 -515
l149 -120 146 -6 c120 -5 159 -11 225 -33 44 -15 97 -38 117 -52 21 -13 39
-24 41 -24 1 0 30 26 63 58 44 43 72 62 109 72 195 55 365 -62 365 -252 0 -38
-7 -84 -15 -104 -24 -59 -11 -66 53 -27 93 56 149 68 302 67 99 0 146 -5 177
-16 35 -14 48 -15 90 -4 l48 12 5 52 c6 55 32 99 71 119 16 8 73 13 169 13
178 0 219 -14 250 -82 11 -24 20 -55 20 -70 0 -33 -10 -32 186 -28 176 3 208
-5 257 -60 l35 -38 31 39 c44 54 79 62 246 55 162 -6 141 -6 315 0 75 3 146 1
159 -4 16 -6 37 -4 60 4 43 16 153 18 200 4 19 -5 47 -22 62 -36 l28 -27 63
27 c85 35 138 45 233 46 212 0 376 -105 451 -291 14 -35 27 -66 29 -67 9 -9
205 63 205 75 0 30 47 111 91 155 94 94 217 133 394 125 61 -3 123 -10 138
-16 25 -10 35 -7 78 16 48 28 49 29 49 78 0 66 35 139 90 188 62 57 101 70
206 72 103 1 110 4 239 109 341 280 627 629 814 996 144 283 241 616 272 934
15 160 7 538 -16 681 -75 485 -283 940 -619 1355 -458 566 -1154 1026 -1959
1295 -453 151 -968 247 -1402 260 -88 3 -189 7 -225 8 -36 2 -155 0 -265 -4z
m-94 -1402 c26 -17 54 -60 117 -182 46 -88 86 -166 89 -172 4 -10 -166 -13
-829 -13 l-835 0 77 150 c82 160 104 191 160 221 33 17 69 18 611 19 l576 0
34 -23z m2749 -387 c0 -371 2 -384 58 -444 59 -63 76 -66 405 -66 l297 0 0
-995 0 -995 -1280 0 -1280 0 0 1420 0 1420 900 0 900 0 0 -340z m463 -67 l145
-143 -154 0 -154 0 0 146 c0 86 4 144 9 142 6 -1 75 -67 154 -145z m-2563
-1389 c0 -957 3 -1181 14 -1207 20 -50 62 -93 111 -116 42 -20 61 -21 315 -21
215 0 270 -3 270 -13 0 -7 -11 -36 -25 -64 -33 -65 -119 -147 -192 -181 l-58
-27 -1710 0 -1710 0 -57 27 c-104 49 -190 148 -222 257 -14 48 -16 176 -16
1116 0 1174 -3 1114 64 1220 54 84 149 152 243 174 21 5 693 9 1505 10 l1467
1 1 -1176z"/>
<path d="M6523 6525 c-103 -32 -194 -113 -241 -213 -24 -50 -27 -70 -27 -157
0 -93 2 -105 32 -166 39 -80 111 -150 191 -187 50 -24 70 -27 157 -27 87 0
107 3 157 27 275 128 312 507 65 671 -94 63 -232 84 -334 52z"/>
<path d="M7322 5753 c-30 -6 -79 -56 -167 -168 -38 -50 -130 -166 -205 -259
-74 -92 -142 -177 -151 -188 -15 -19 -20 -14 -135 117 -65 75 -131 143 -146
151 -38 20 -97 17 -134 -5 -56 -34 -438 -540 -454 -602 -19 -70 17 -153 77
-178 21 -8 275 -11 964 -9 l935 3 36 24 c81 56 109 155 70 243 -32 73 -406
646 -509 781 -57 74 -115 103 -181 90z"/>
<path d="M4025 6134 c-369 -36 -695 -223 -907 -519 -110 -153 -194 -371 -218
-565 -35 -288 35 -585 195 -825 120 -181 280 -320 480 -416 343 -166 733 -165
1070 1 360 177 604 497 670 879 17 94 19 313 5 411 -55 379 -309 728 -660 905
-96 49 -223 91 -325 110 -87 15 -246 25 -310 19z m319 -344 c402 -108 676
-463 676 -876 0 -254 -99 -486 -282 -660 -179 -170 -352 -241 -608 -251 -122
-4 -145 -2 -235 21 -329 84 -578 327 -666 651 -31 110 -33 326 -5 435 91 358
355 612 722 694 96 22 292 15 398 -14z"/>
<path d="M4022 5500 c-131 -24 -255 -91 -342 -187 -100 -109 -149 -226 -157
-373 -17 -287 166 -539 442 -610 420 -107 821 276 731 699 -46 215 -219 403
-421 455 -80 20 -187 27 -253 16z"/>
<path d="M7923 2630 c-41 -25 -53 -48 -53 -105 0 -40 5 -52 34 -81 30 -30 40
-34 86 -34 46 0 56 4 86 34 28 28 34 42 34 75 0 106 -99 165 -187 111z"/>
<path d="M2910 2622 c-75 -37 -90 -134 -30 -194 24 -24 36 -28 82 -28 60 0 90
16 113 60 30 59 13 118 -44 157 -41 28 -74 29 -121 5z"/>
<path d="M1990 2065 l0 -535 105 0 105 0 0 164 0 164 153 3 c149 4 154 5 219
37 122 60 179 152 186 298 6 124 -19 202 -89 279 -96 104 -176 125 -481 125
l-198 0 0 -535z m476 309 c48 -35 65 -68 71 -130 6 -81 -23 -140 -87 -171 -37
-19 -60 -23 -147 -23 l-103 0 0 176 0 176 119 -4 c102 -3 124 -6 147 -24z"/>
<path d="M4040 2395 l0 -85 -55 0 -55 0 0 -87 0 -88 55 3 55 4 0 -209 c0 -222
8 -273 49 -331 44 -62 166 -95 271 -73 82 17 81 15 58 102 l-20 76 -48 -5
c-42 -4 -49 -1 -68 23 -21 26 -22 38 -22 222 l0 195 75 -4 75 -3 0 88 0 87
-75 0 -75 0 0 85 0 85 -110 0 -110 0 0 -85z"/>
<path d="M3433 2306 c-171 -56 -275 -244 -246 -450 21 -147 91 -249 208 -303
52 -24 73 -27 160 -28 135 0 191 20 266 94 55 56 89 123 89 178 0 23 -2 23
-105 23 -100 0 -105 -1 -105 -21 0 -12 -17 -39 -39 -60 -35 -36 -43 -39 -93
-39 -65 0 -111 26 -142 80 -18 29 -21 52 -21 140 0 119 14 157 75 197 37 25
120 31 163 12 26 -12 57 -57 57 -83 0 -14 16 -16 109 -16 l109 0 -12 54 c-14
57 -51 130 -83 158 -10 9 -45 30 -78 45 -52 23 -75 28 -165 30 -68 2 -120 -2
-147 -11z"/>
<path d="M5721 2309 c-39 -16 -82 -50 -102 -83 l-19 -31 0 58 0 57 -105 0
-105 0 0 -390 0 -390 110 0 110 0 0 237 c0 215 2 240 20 278 29 59 69 80 157
80 82 0 79 -5 89 108 6 54 4 71 -7 78 -18 11 -117 10 -148 -2z"/>
<path d="M6163 2305 c-132 -41 -214 -133 -248 -277 -49 -208 31 -396 203 -476
52 -25 68 -27 172 -26 130 1 195 19 263 75 39 32 81 96 91 142 l6 27 -109 0
c-102 0 -110 -1 -116 -21 -12 -36 -63 -59 -133 -59 -100 0 -153 44 -168 138
l-7 42 273 0 272 0 -7 78 c-18 196 -98 315 -238 357 -62 18 -197 18 -254 0z
m195 -165 c33 -15 47 -29 62 -62 39 -85 42 -83 -137 -81 -87 2 -159 3 -160 3
-8 0 29 96 44 112 43 49 120 60 191 28z"/>
<path d="M7277 2303 c-70 -23 -131 -82 -156 -149 -33 -86 -35 -84 79 -84 55 0
100 4 100 9 0 5 11 23 25 40 51 60 171 51 203 -16 15 -31 15 -37 1 -61 -16
-29 -33 -34 -204 -66 -191 -36 -265 -100 -265 -228 1 -140 100 -222 270 -223
94 0 129 13 188 68 l32 31 0 -25 c1 -67 4 -69 109 -69 l96 0 -3 277 c-1 159
-7 295 -13 318 -35 128 -150 196 -334 194 -45 0 -101 -7 -128 -16z m268 -510
c-25 -134 -247 -172 -271 -46 -9 47 33 87 112 103 32 7 82 18 109 24 l50 11 3
-29 c2 -16 1 -44 -3 -63z"/>
<path d="M2860 1920 l0 -391 108 3 107 3 3 388 2 387 -110 0 -110 0 0 -390z"/>
<path d="M4532 2013 c3 -289 4 -299 26 -345 73 -148 280 -195 402 -91 24 20
51 51 61 67 l19 31 0 -72 0 -73 110 0 110 0 0 390 0 390 -110 0 -110 0 0 -230
c0 -284 -10 -317 -105 -361 -52 -24 -92 -24 -132 1 -56 33 -57 42 -59 325 l-2
260 -107 3 -106 3 3 -298z"/>
<path d="M7880 1920 l0 -390 105 0 105 0 0 390 0 390 -105 0 -105 0 0 -390z"/>
<path d="M6794 1760 c-39 -16 -64 -59 -64 -111 0 -40 5 -52 30 -78 98 -98 258
17 195 139 -26 51 -102 74 -161 50z"/>
</g>
</svg>
