<?xml version="1.0" standalone="no"?>
<!DOCTYPE svg PUBLIC "-//W3C//DTD SVG 20010904//EN"
 "http://www.w3.org/TR/2001/REC-SVG-20010904/DTD/svg10.dtd">
<svg version="1.0" xmlns="http://www.w3.org/2000/svg"
 width="1024.000000pt" height="1024.000000pt" viewBox="0 0 1024.000000 1024.000000"
 preserveAspectRatio="xMidYMid meet">

<g transform="translate(0.000000,1024.000000) scale(0.100000,-0.100000)"
fill="#000000" stroke="none">
<path d="M4635 8419 c-992 -90 -1945 -457 -2640 -1017 -549 -443 -916 -987
-1070 -1588 -93 -358 -108 -774 -44 -1154 142 -844 730 -1628 1624 -2166 607
-365 1316 -592 2105 -676 167 -17 851 -18 1015 0 1000 107 1812 419 2526 969
139 107 462 428 583 578 194 243 375 550 480 817 235 599 228 1342 -18 1956
-279 694 -842 1265 -1676 1700 -581 303 -1177 483 -1880 568 -158 19 -841 28
-1005 13z m123 -1389 c39 -24 54 -49 144 -232 l67 -138 -829 0 c-457 0 -830 2
-830 5 0 16 143 287 165 314 15 17 44 40 64 51 34 18 64 19 611 20 558 0 576
-1 608 -20z m2752 -392 c0 -313 2 -347 19 -383 22 -47 74 -99 114 -114 18 -7
142 -11 333 -11 l304 0 -2 -1097 -3 -1098 -1282 -3 -1283 -2 0 1525 0 1525
900 0 900 0 0 -342z m520 -122 l85 -86 -153 0 -152 0 0 146 0 146 68 -60 c37
-33 105 -99 152 -146z m-2618 -1445 l3 -1289 30 -44 c20 -28 49 -52 84 -70
l55 -28 263 0 c153 0 263 -4 263 -9 0 -12 -66 -63 -110 -86 -25 -13 -72 -21
-160 -26 -178 -11 -3281 -11 -3359 1 -137 19 -252 107 -314 238 l-32 67 0
1110 0 1110 32 67 c56 119 158 205 278 234 38 9 400 13 1507 13 l1458 1 2
-1289z"/>
<path d="M6580 6315 c-110 -31 -199 -107 -248 -213 -23 -49 -27 -70 -27 -152
0 -88 3 -101 33 -162 94 -191 320 -269 506 -176 61 31 143 115 173 177 25 50
28 67 28 161 0 96 -2 110 -30 163 -80 159 -271 247 -435 202z"/>
<path d="M7415 5536 c-39 -17 -76 -59 -344 -384 -123 -150 -229 -271 -235
-269 -6 2 -40 39 -74 83 -107 133 -164 195 -196 215 -35 22 -83 24 -121 7 -29
-13 -257 -283 -382 -451 -92 -124 -160 -246 -168 -302 -12 -78 49 -134 130
-120 22 4 465 10 985 14 l945 6 42 22 c45 25 74 59 91 112 27 78 11 153 -68
316 -55 115 -320 548 -409 668 -67 91 -123 115 -196 83z"/>
<path d="M3885 6110 c-351 -72 -651 -285 -830 -590 -201 -343 -217 -782 -42
-1144 116 -240 296 -427 527 -545 355 -182 767 -188 1115 -16 322 159 551 439
642 785 31 117 43 360 24 491 -66 450 -388 834 -819 979 -185 62 -431 78 -617
40z m378 -305 c185 -32 339 -109 470 -234 195 -186 287 -398 287 -661 0 -236
-79 -440 -238 -611 -123 -132 -274 -224 -447 -270 -115 -32 -335 -32 -450 0
-172 46 -322 137 -446 269 -322 343 -318 882 10 1225 223 233 515 334 814 282z"/>
<path d="M4003 5499 c-198 -33 -381 -191 -455 -395 -30 -82 -37 -253 -13 -344
39 -153 159 -307 292 -378 320 -169 712 -24 845 313 26 66 32 98 36 185 8 184
-45 320 -177 451 -144 143 -327 202 -528 168z"/>
</g>
</svg>
